<svg xmlns="http://www.w3.org/2000/svg" viewBox="0 0 254.63 174.66"><defs><style>.cls-1{fill:none;}.cls-2{font-size:48.05px;font-family:Nexa-Heavy, Nexa;font-weight:800;}.cls-3{letter-spacing:0em;}.cls-4{letter-spacing:-0.02em;}.cls-5{letter-spacing:0em;}</style></defs><title>Asset 2</title><g id="Layer_2" data-name="Layer 2"><g id="Layer_1-2" data-name="Layer 1"><path d="M186,118.49q-8.66-22.81-17.35-45.61A4,4,0,0,0,167.05,71c-2.94-1.76-6-3.4-9-5.09l-9.35-5.28c.27-.45.48-.82.71-1.18,1.74-2.78,3.54-5.52,5.22-8.34A32.88,32.88,0,0,0,159,28.53,33.83,33.83,0,0,0,121.15.3C97.06,3.5,84.09,30.59,96.71,51.37c1.68,2.77,3.45,5.49,5.17,8.23.2.32.39.65.6,1-.45.27-.78.47-1.12.66C95.65,64.5,89.92,67.7,84.24,71a4.21,4.21,0,0,0-1.7,2C78.11,84.47,73.75,96,69.36,107.58c-1.47,3.86-3,7.71-4.5,11.57v2.37h2.38l16.36-9.28c3.91-2.22,7.84-4.41,11.75-6.64a1.31,1.31,0,0,1,1.5,0q13.82,7.81,27.64,15.59a2.93,2.93,0,0,1,.42.37h1.42c2.75-1.59,5.49-3.21,8.26-4.78q9.79-5.55,19.59-11.06a1.5,1.5,0,0,1,1.72-.09q13.95,7.91,27.95,15.76a.83.83,0,0,1,.15.17h1.19C186.49,120.49,186.62,120.06,186,118.49ZM99.6,49.18c-11.11-18.34.5-42.29,21.76-45.32a30.26,30.26,0,0,1,34.2,25.85c.19,1.37.25,2.75.37,4.13A29.45,29.45,0,0,1,151.6,49.3q-12.06,19.31-24.26,38.52c-1,1.61-2.42,1.61-3.44,0C115.77,75,107.48,62.19,99.6,49.18Zm80.48,66q-11.29-6.36-22.59-12.76a2.12,2.12,0,0,1-1-1.19q-1.93-9-3.84-18c-1.18.14-2.36.3-3.54.38q1.83,8.66,3.69,17.32a1.54,1.54,0,0,1-.91,2c-7.76,4.32-15.49,8.7-23.24,13.07-.34.19-.69.36-1.29.67v-1.37c0-2.36,0-4.71,0-7.06-1.2.13-2.4.32-3.59.5v7.47a2.54,2.54,0,0,1-.13.4L98.15,102.22l2.41-11.39c.32-1.51.65-3,1-4.52a2.9,2.9,0,0,0,0-.71,4.54,4.54,0,0,0-2.28-.46,2.21,2.21,0,0,1-1-.18,2.94,2.94,0,0,0-.22.57c-1.11,5.13-2.18,10.27-3.32,15.4a2.31,2.31,0,0,1-.87,1.39q-11.47,6.54-23,13a6.17,6.17,0,0,1-.68.31c.17-.55.27-1,.42-1.35Q78,94.69,85.52,75.1a2.7,2.7,0,0,1,1-1.34c5.07-2.91,10.17-5.77,15.26-8.64a5.46,5.46,0,0,1,.62-.24c-.46,2.23-.9,4.33-1.34,6.44s-1,4.48-1.43,6.72a2.32,2.32,0,0,0,.16,1.57,9,9,0,0,1,2.63.4,2.4,2.4,0,0,0,.67-1.23c.87-4,1.72-8,2.58-12,0-.14.08-.29.2-.69.33.5.57.82.78,1.16,4.68,7.42,9.34,14.86,14.07,22.24A19.23,19.23,0,0,0,123.26,92c.24.25.55.6.55.9,0,3.42,0,6.83,0,10.25,1.19-.18,2.38-.37,3.58-.5,0-3.08,0-6.16,0-9.23a1.76,1.76,0,0,1,.92-1.69,8.17,8.17,0,0,0,2.23-2.38q7.05-11,14-22.15c.2-.33.42-.65.81-1.23.33,1.48.62,2.71.88,4l2,9.55a1.46,1.46,0,0,1,.2,0,26.76,26.76,0,0,0,3.35-.33c-1-4.57-2-9.15-2.93-13.72a5.07,5.07,0,0,1,0-.58l7.54,4.24c2.68,1.51,5.38,3,8,4.56A2.94,2.94,0,0,1,165.67,75q7.54,19.76,15,39.52c.12.32.21.65.37,1.15C180.62,115.41,180.34,115.3,180.08,115.15Z"/><path class="cls-1" d="M122.5,108.91c-1.49.19-2.77-1.42-2.77-2.77a2.86,2.86,0,0,1,2.77-2.77l1.31-.19c0-3.42,0-6.83,0-10.25,0-.3-.31-.65-.55-.9a19.23,19.23,0,0,1-2.52-2.59c-4.73-7.38-9.39-14.82-14.07-22.24-.21-.34-.45-.66-.78-1.16-.12.4-.17.55-.2.69-.86,4-1.71,8-2.58,12a2.4,2.4,0,0,1-.67,1.23,13.68,13.68,0,0,1,2.25.93c3.16,1.66.35,6.45-2.8,4.79-.11-.06-.22-.08-.33-.13a2.9,2.9,0,0,1,0,.71c-.31,1.51-.64,3-1,4.52l-2.41,11.39,25.53,14.37a2.54,2.54,0,0,0,.13-.4v-7.47Z"/><path class="cls-1" d="M96.51,82.36a2.84,2.84,0,0,1,2.77-2.77c.18,0,.35,0,.53,0A2.32,2.32,0,0,1,99.65,78c.47-2.24,1-4.48,1.43-6.72s.88-4.21,1.34-6.44a5.46,5.46,0,0,0-.62.24C96.71,68,91.61,70.85,86.54,73.76a2.7,2.7,0,0,0-1,1.34Q78,94.68,70.61,114.28c-.15.39-.25.8-.42,1.35a6.17,6.17,0,0,0,.68-.31q11.52-6.48,23-13a2.31,2.31,0,0,0,.87-1.39c1.14-5.13,2.21-10.27,3.32-15.4a2.94,2.94,0,0,1,.22-.57A2.9,2.9,0,0,1,96.51,82.36Z"/><path class="cls-1" d="M152.84,100.88q-1.87-8.66-3.69-17.32c-.23,0-.44,0-.67.06-2.6,0-2.65-3.84-.2-4.12l-2-9.55c-.26-1.24-.55-2.47-.88-4-.39.58-.61.9-.81,1.23q-7,11.08-14,22.15a8.17,8.17,0,0,1-2.23,2.38,1.76,1.76,0,0,0-.92,1.69c0,3.07,0,6.15,0,9.23a19.39,19.39,0,0,1,2-.14c3.57-.06,3.56,5.48,0,5.54-.67,0-1.35.07-2,.14,0,2.35,0,4.7,0,7.06v1.37c.6-.31.95-.48,1.29-.67,7.75-4.37,15.48-8.75,23.24-13.07A1.54,1.54,0,0,0,152.84,100.88Z"/><path class="cls-1" d="M180.68,114.47Q173.2,94.7,165.67,75a2.94,2.94,0,0,0-1.19-1.33c-2.66-1.57-5.36-3.05-8-4.56l-7.54-4.24a5.07,5.07,0,0,0,0,.58c1,4.57,2,9.15,2.93,13.72.59-.08,1.18-.17,1.77-.22A2.1,2.1,0,0,1,155.68,81a2.13,2.13,0,0,1-2.08,2.08c-.31,0-.61.08-.91.12q1.92,9,3.84,18a2.12,2.12,0,0,0,1,1.19q11.28,6.42,22.59,12.76c.26.15.54.26,1,.47C180.89,115.12,180.8,114.79,180.68,114.47Z"/><path d="M145.19,33.86A19.57,19.57,0,1,1,125.7,14.25,19.6,19.6,0,0,1,145.19,33.86Zm-35.58-.08a16,16,0,1,0,16.15-16A16,16,0,0,0,109.61,33.78Z"/><path d="M138.05,34a12.44,12.44,0,1,1-12.14-12.63A12.44,12.44,0,0,1,138.05,34Zm-3.55-.17a8.89,8.89,0,1,0-8.89,8.89A8.9,8.9,0,0,0,134.5,33.84Z"/><path d="M194,34.26a44.51,44.51,0,0,1-11.81,29.67,2.76,2.76,0,0,1-4.1.39c-1.19-1.12-1.18-2.74.07-4.13A38.32,38.32,0,0,0,188,39.91c2-13.42-1.9-24.95-11.41-34.6-1.44-1.46-1.73-2.66-.86-3.94,1.09-1.61,2.89-1.71,4.46-.21a44.35,44.35,0,0,1,11,16.63A46.1,46.1,0,0,1,194,34.26Z"/><path d="M180.12,32.26c-.16,8.75-2.54,15.83-7.53,22a2.75,2.75,0,1,1-4.28-3.4,28,28,0,0,0-1.54-37c-1.25-1.31-1.4-2.56-.58-3.76,1.07-1.56,3-1.62,4.47-.06a32.46,32.46,0,0,1,8.84,17.24C179.84,29.17,180,31.15,180.12,32.26Z"/><path d="M57.18,34.26A44.52,44.52,0,0,0,69,63.93a2.75,2.75,0,0,0,4.09.39c1.2-1.12,1.19-2.74-.06-4.13a38.25,38.25,0,0,1-9.78-20.28c-2-13.42,1.9-24.95,11.41-34.6,1.43-1.46,1.73-2.66.86-3.94-1.09-1.61-2.9-1.71-4.46-.21a44.35,44.35,0,0,0-11,16.63A46.32,46.32,0,0,0,57.18,34.26Z"/><path d="M71.1,32.26c.16,8.75,2.55,15.83,7.54,22a2.75,2.75,0,1,0,4.28-3.4,28,28,0,0,1,1.54-37c1.25-1.31,1.4-2.56.57-3.76-1.07-1.56-3-1.62-4.46-.06a32.54,32.54,0,0,0-8.85,17.24C71.38,29.17,71.24,31.15,71.1,32.26Z"/><path d="M104.67,80c.09,0,.23,0,.28-.09a.67.67,0,0,1,.82-.29c.6.2,1.34,0,1.78.67a.3.3,0,0,0,.21.12c.56,0,.8.29,1,.8.1.26.64.34,1,.49l.93.36c.38.16.37.45.15.71a1.73,1.73,0,0,0-.48,1.11c0,.42-.12.85-.7,1a.77.77,0,0,0-.6.73,2.71,2.71,0,0,1-.64,1.12c-.06.09-.25.07-.42.11.16.4.07.69-.45.72-.05,0-.11.09-.15.14a3.57,3.57,0,0,0-.24.29l-.26,1s.12.11.21.21c-.37.85-.35,1,.27,1.51a.65.65,0,0,1-.65-.06c-.69-.37-.69-1-.88-1.57,0-.1.12-.27.11-.4,0-.33-.13-.66-.14-1,0-.66,0-1.32,0-2,0-.34.05-.69.05-1a1,1,0,0,0-.51-.87,3.39,3.39,0,0,1-.71-.83c-.15-.2-.38-.41-.4-.64a1.6,1.6,0,0,1,.14-1.08,1.07,1.07,0,0,0,.21-1.19Z"/><path d="M95.24,77.33c-.19.45.05.86.13,1.28.3-.06.25-.65.7-.47h0a.68.68,0,0,1-.6.78c-.09,0-.15.15-.22.22h0c-.29.2-.58.38-.86.59-.49.37-.62.76-.31,1.06a6.81,6.81,0,0,0,.85.59L95,82l.14,0c.08-.4.46-.71.5-1a4.8,4.8,0,0,0,.21-1.13c.7-.07.75.44.83,1l.47-.38a1.78,1.78,0,0,1,.1.38,1.15,1.15,0,0,0,.4.78c.22.17.24.38,0,.53l0,0-1.21.2v.08l.16,0,.29.66-.39.18c-.18-.32-.4-.1-.52,0a3.13,3.13,0,0,0-.72.78,2.53,2.53,0,0,1-.82,1c-.08.06-.05.28-.05.42s0,.3,0,.46l-.1,0a2,2,0,0,1-.15-.29.56.56,0,0,0-.82-.36c-.09,0-.22,0-.31,0s-.56.19-.64.37c-.23.51-.15,1,.14,1.1a1,1,0,0,0,.56-.13,2.27,2.27,0,0,0,.4-.29l.07.09-.24.67.64.1c0,.14,0,.23,0,.32-.06.37,0,.47.43.44a.9.9,0,0,1,.22.06l0,0c-.47.21-.72-.07-1-.38a4,4,0,0,0-1.08-.52l-1.09-.49c0-.67-.63-1-.77-1.58a.57.57,0,0,0-.08-.13l-.11,0,.36,1-.1,0c-.11-.25-.23-.5-.35-.76A11.32,11.32,0,0,1,89.64,84a2,2,0,0,1,0-1c.1-.42.4-.83,0-1.25.26-.34,0-.67,0-1a1.82,1.82,0,0,0-.16-.52h-.1l.17-.28-1.08-1-.66.37.19-.48a3.66,3.66,0,0,1-1.7,1.1l.85-.63c-.67-.41-.76-1-.26-1.31.11-.06.25-.07.37-.12s.22-.14.42-.27l-.64-.1.1-.53.79.13a5.67,5.67,0,0,1-.15-.69.24.24,0,0,1,.11-.19c.35-.14.7-.29,1.07-.4a.66.66,0,0,1,.47.09,9.41,9.41,0,0,1,.89.67,6.22,6.22,0,0,1,.45.51c.85-.4,1.41.25,2.08.66l-.19.21.64.24.31-.22c.23.21.41.49.75.24l0,0c.26,0,.33-.16.38-.45a2.09,2.09,0,0,1,.27-.48h0l.21,0Z"/><path d="M118.81,90.55c-.18.44.06.85.14,1.27.3,0,.24-.65.7-.47h0a.69.69,0,0,1-.6.78c-.09,0-.15.15-.22.22h0c-.29.2-.59.38-.86.59-.49.37-.62.76-.31,1.06a5.6,5.6,0,0,0,.85.59l.08.67.14,0c.07-.4.46-.71.49-1a5.38,5.38,0,0,0,.22-1.13c.69-.07.75.44.83,1l.47-.38a2.66,2.66,0,0,1,.1.38,1.09,1.09,0,0,0,.4.78c.22.17.23.38,0,.53h0l-1.2.19v.08l.17,0,.29.66-.4.18c-.17-.32-.39-.1-.51,0a3.13,3.13,0,0,0-.72.78,2.47,2.47,0,0,1-.83,1c-.07.06,0,.28,0,.42a3.54,3.54,0,0,0,0,.46l-.1,0c0-.1-.12-.19-.16-.29a.55.55,0,0,0-.81-.36c-.09,0-.22,0-.32,0s-.55.19-.63.37c-.23.51-.15,1,.14,1.1a1,1,0,0,0,.56-.13,3.35,3.35,0,0,0,.4-.29l.06.09-.23.67.64.11c0,.13,0,.22-.06.31,0,.37,0,.47.44.44a.9.9,0,0,1,.22.06l0,0c-.47.21-.72-.07-1-.38a3.87,3.87,0,0,0-1.08-.52l-1.09-.49c0-.67-.62-1-.77-1.58a.54.54,0,0,0-.07-.13l-.11,0,.36,1-.1,0-.35-.75a9.48,9.48,0,0,1-.63-1.38,2,2,0,0,1,0-1c.1-.42.4-.83,0-1.25.26-.34,0-.67,0-1a1.82,1.82,0,0,0-.16-.52H113l.17-.28-1.08-1-.66.37.19-.48a3.64,3.64,0,0,1-1.71,1.1l.86-.63c-.68-.41-.76-1-.26-1.31.11-.06.25-.07.37-.12s.22-.14.42-.27l-.64-.1.1-.53.79.13a5.67,5.67,0,0,1-.15-.69.26.26,0,0,1,.1-.19c.36-.14.71-.29,1.07-.4a.64.64,0,0,1,.47.09,7.4,7.4,0,0,1,.89.67,4.79,4.79,0,0,1,.46.51c.85-.4,1.4.25,2.08.66l-.2.21.64.25.31-.23c.24.21.42.49.76.24l0,0c.26,0,.33-.16.38-.45a1.54,1.54,0,0,1,.27-.48h0l.2,0Z"/><path d="M105.79,102.05l-.4.23c-.57-1.31-1.52-.92-2.63-.52-.65.23-1.34.36-2,.53,0-1.11,0-2,0-2.89a.92.92,0,0,1,.76-1.09A4.25,4.25,0,0,0,103.56,97a1.65,1.65,0,0,1,1-.3,1.37,1.37,0,0,1,1.9-.5c-.69,1,.41.94.85,1.56l.49-1.8.16,0a15.87,15.87,0,0,0,.62,1.67c.28.56.67,1.07,1,1.62a2.4,2.4,0,0,1-.22,2.75,15.14,15.14,0,0,1-.85,1.29c-.3.32-.77.7-1.13.67s-1.33.11-1.25-.9C106.13,102.71,105.92,102.42,105.79,102.05Z"/><path d="M86.06,91.87l-.39.23c-.57-1.32-1.52-.92-2.63-.53-.65.24-1.35.36-2,.54,0-1.11,0-2,0-2.89,0-.6.23-1,.76-1.09a4.18,4.18,0,0,0,2.09-1.36,1.63,1.63,0,0,1,1-.29,1.35,1.35,0,0,1,1.9-.5c-.69,1,.4.94.84,1.56l.49-1.8.16,0c.21.55.37,1.14.63,1.67s.67,1.07,1,1.61a2.42,2.42,0,0,1-.23,2.76,14.37,14.37,0,0,1-.85,1.29c-.3.31-.77.7-1.12.66s-1.33.11-1.25-.9A2.83,2.83,0,0,0,86.06,91.87Z"/><path d="M89.71,93.71c.09,0,.21.11.29.08a.68.68,0,0,1,.85.19c.39.5,1.11.75,1.14,1.53a.3.3,0,0,0,.12.21,1,1,0,0,1,.41,1.22c0,.27.36.62.57.93l.59.81c.24.34.07.57-.25.67a1.75,1.75,0,0,0-1,.69.83.83,0,0,1-1.11.42.77.77,0,0,0-.89.3,2.89,2.89,0,0,1-1.14.6c-.09,0-.25-.08-.42-.14-.07.43-.3.62-.76.37,0,0-.14,0-.2,0l-.36.11-.77.72s0,.16.08.29c-.77.52-.84.66-.59,1.42a.68.68,0,0,1-.52-.4c-.38-.69,0-1.21.1-1.8,0-.11.25-.16.31-.28.16-.29.24-.62.41-.9.35-.56.73-1.11,1.1-1.65.19-.28.4-.55.59-.84a1,1,0,0,0,0-1,3.44,3.44,0,0,1-.15-1.08,1.62,1.62,0,0,1,0-.76c.17-.32.41-.74.71-.83a1.06,1.06,0,0,0,.81-.9Z"/><path d="M82.71,106.67c-.24-.38-.54-.63-.56-.89-.05-1.32.58-2.94-1.79-3a3.4,3.4,0,0,1-.7-2.15c1.29-1,.44-2,.24-3a20.33,20.33,0,0,1-.13-2.93l.88,0-.06,2.51C83.44,98.14,84.12,100.87,82.71,106.67Z"/><path d="M146.15,79c-.1,0-.24,0-.29-.09a.67.67,0,0,0-.82-.3c-.6.21-1.34,0-1.78.68a.29.29,0,0,1-.21.11c-.56,0-.8.3-1,.81-.1.25-.63.33-1,.48l-.93.37c-.38.16-.36.44-.15.7a1.74,1.74,0,0,1,.48,1.12.84.84,0,0,0,.71,1,.76.76,0,0,1,.59.73,2.84,2.84,0,0,0,.64,1.12c.06.08.25.07.43.11-.17.39-.08.68.44.71,0,0,.11.09.15.14s.19.23.24.29l.26,1-.21.2c.37.85.35,1-.27,1.51a.62.62,0,0,0,.65-.06c.7-.37.69-1,.88-1.56,0-.11-.12-.27-.11-.4,0-.33.13-.66.14-1,0-.66,0-1.32,0-2,0-.34,0-.68-.05-1a1,1,0,0,1,.51-.87,3.58,3.58,0,0,0,.71-.83c.16-.21.38-.42.4-.65a1.56,1.56,0,0,0-.14-1.07,1.09,1.09,0,0,1-.21-1.2Z"/><path d="M132,89.54c.18.45-.06.85-.13,1.27-.31,0-.25-.64-.71-.47h0a.68.68,0,0,0,.59.78c.09,0,.15.14.22.22h0c.28.19.58.38.85.59.49.36.62.76.32,1a4.87,4.87,0,0,1-.86.59l-.08.67-.14,0c-.07-.4-.45-.71-.49-1a5.6,5.6,0,0,1-.22-1.14c-.69-.07-.75.45-.83,1l-.47-.38c0,.13-.08.26-.1.39a1.07,1.07,0,0,1-.4.77c-.22.18-.23.38.05.53h0l1.2.19v.08l-.17,0-.29.66.4.17c.17-.32.39-.09.51,0a3.13,3.13,0,0,1,.72.78,2.71,2.71,0,0,0,.83,1c.07,0,0,.27.05.42s0,.3,0,.45l.1,0c0-.1.12-.19.16-.29a.56.56,0,0,1,.81-.36c.09,0,.22,0,.32,0s.55.18.63.36c.24.52.15,1-.14,1.1a.94.94,0,0,1-.56-.13,2.55,2.55,0,0,1-.39-.28l-.07.08.23.67-.64.11c0,.13,0,.22.06.31,0,.37-.05.48-.44.45a.59.59,0,0,0-.22,0l0,0c.48.2.72-.07,1-.38a3.63,3.63,0,0,1,1.08-.53l1.09-.48c0-.67.63-1,.77-1.59a.83.83,0,0,1,.07-.13l.11,0-.36,1,.1,0c.12-.26.23-.51.35-.76a9.48,9.48,0,0,0,.63-1.38,2,2,0,0,0,0-1c-.1-.42-.4-.83,0-1.24-.27-.34,0-.67,0-1a1.63,1.63,0,0,1,.15-.52h.1l-.17-.28,1.08-1,.66.36-.19-.48a3.64,3.64,0,0,0,1.71,1.1l-.85-.62c.67-.42.75-1,.25-1.31-.1-.07-.25-.07-.36-.13a3.32,3.32,0,0,1-.43-.27l.64-.1-.1-.52-.79.13a6.12,6.12,0,0,0,.15-.69.23.23,0,0,0-.1-.19,8.65,8.65,0,0,0-1.07-.4.65.65,0,0,0-.47.08,7.47,7.47,0,0,0-.89.68,4.62,4.62,0,0,0-.46.5c-.84-.4-1.4.25-2.08.66l.2.21-.64.25-.31-.22c-.24.21-.42.49-.75.23l0,0c-.25,0-.33-.15-.38-.45a1.74,1.74,0,0,0-.26-.48h0l-.2.05Z"/><path d="M145,101l.39.23c.57-1.31,1.52-.91,2.63-.52.65.24,1.35.36,2,.54,0-1.12,0-2,0-2.89,0-.61-.22-1-.76-1.1A4.18,4.18,0,0,1,147.25,96a1.65,1.65,0,0,0-1-.29,1.36,1.36,0,0,0-1.9-.5c.69,1-.4.94-.85,1.56L143,94.91l-.15,0c-.21.56-.37,1.14-.63,1.67s-.67,1.08-1,1.62a2.42,2.42,0,0,0,.22,2.76c.32.41.5.92.85,1.29s.78.7,1.13.66,1.33.11,1.25-.9A2.53,2.53,0,0,1,145,101Z"/><path d="M139.32,108.89c-.43-.15-.82-.16-1-.36-.85-1-1.34-2.69-3.24-1.26-.22.16-1.94-1-1.87-1.28.4-1.6-.86-1.83-1.65-2.54a19.46,19.46,0,0,1-1.89-2.24l.71-.52,1.48,2C134.69,101.69,136.89,103.43,139.32,108.89Z"/><path d="M116.32,109.31l-.24,1.79c-1.51-1.71-.62-2.87.48-3.62,3-2,3.08-2,3.26-5.57,2,1.56.56,3.64,1.36,5.26Z"/><path d="M155.21,75.82c.19.45-.05.85-.13,1.27-.31,0-.25-.64-.7-.47h0a.67.67,0,0,0,.6.77c.08,0,.15.15.22.23h0c.29.19.58.38.86.59.49.36.62.75.31,1a5.19,5.19,0,0,1-.85.59l-.08.67-.15,0c-.07-.4-.45-.71-.49-1a4.8,4.8,0,0,1-.21-1.13c-.7-.07-.75.45-.83,1l-.47-.38a1.86,1.86,0,0,0-.1.39,1.1,1.1,0,0,1-.4.77c-.22.18-.24.38.05.53h0l1.21.19V81l-.16,0-.29.66.39.17c.18-.32.4-.1.52,0a2.82,2.82,0,0,1,.72.78,2.68,2.68,0,0,0,.82,1c.08,0,0,.27,0,.41s0,.31,0,.46l.1,0a1.4,1.4,0,0,0,.16-.29.56.56,0,0,1,.81-.36c.1,0,.23,0,.32,0s.56.18.64.36c.23.52.15,1-.15,1.1a.91.91,0,0,1-.55-.13A2.21,2.21,0,0,1,157,85l-.07.08.23.67-.63.11c0,.13,0,.22.05.31.06.37-.05.47-.44.45a.54.54,0,0,0-.21,0l0,0c.47.2.71-.07,1-.39a4,4,0,0,1,1.08-.52l1.09-.48c0-.67.63-1,.77-1.59a.35.35,0,0,1,.08-.13l.11,0-.36,1,.1,0c.11-.26.23-.51.35-.76a12.21,12.21,0,0,0,.63-1.38,2,2,0,0,0,0-1c-.09-.42-.39-.83,0-1.24-.27-.34,0-.68,0-1a1.65,1.65,0,0,1,.16-.52h.1l-.17-.28,1.07-1,.67.36-.19-.48a3.62,3.62,0,0,0,1.7,1.1l-.85-.62c.67-.42.76-1,.25-1.31a3,3,0,0,0-.36-.13,2.76,2.76,0,0,1-.42-.27l.64-.1-.1-.52-.79.13c.05-.24.12-.46.15-.69a.21.21,0,0,0-.11-.19,8.09,8.09,0,0,0-1.07-.4.65.65,0,0,0-.47.08,8.07,8.07,0,0,0-.89.68,4.6,4.6,0,0,0-.45.5c-.85-.4-1.41.25-2.08.66l.19.21-.64.25-.31-.23c-.23.21-.41.5-.75.24l0,0c-.26,0-.33-.16-.39-.45a1.74,1.74,0,0,0-.26-.48h0l-.2,0Z"/><path d="M164.39,90.35l.39.23c.57-1.31,1.52-.92,2.63-.52.65.23,1.35.36,2,.53,0-1.11,0-2,0-2.89a.91.91,0,0,0-.76-1.09,4.25,4.25,0,0,1-2.08-1.35,1.65,1.65,0,0,0-1-.3,1.37,1.37,0,0,0-1.9-.5c.69,1-.4.94-.85,1.56l-.48-1.8-.16,0c-.21.56-.37,1.14-.63,1.67s-.67,1.07-1,1.62a2.42,2.42,0,0,0,.22,2.75c.32.41.51.93.85,1.29s.78.7,1.13.67,1.33.11,1.25-.9A2.87,2.87,0,0,1,164.39,90.35Z"/><path d="M160.74,92.2c-.1,0-.21.1-.29.07a.67.67,0,0,0-.85.2c-.4.49-1.12.74-1.14,1.52a.35.35,0,0,1-.12.21,1,1,0,0,0-.41,1.22c0,.27-.36.62-.57.93s-.4.54-.59.82-.07.56.25.67a1.68,1.68,0,0,1,1,.68.83.83,0,0,0,1.11.42.77.77,0,0,1,.89.3,2.76,2.76,0,0,0,1.14.6c.09,0,.25-.07.42-.13.07.42.3.62.76.36,0,0,.14,0,.2,0l.36.11.76.72a1.79,1.79,0,0,1-.07.29c.77.52.83.66.59,1.42a.63.63,0,0,0,.51-.4c.39-.68.05-1.21-.09-1.79,0-.11-.25-.17-.31-.28-.16-.29-.24-.63-.42-.91-.34-.56-.72-1.1-1.09-1.65-.19-.28-.4-.55-.59-.84a1,1,0,0,1,0-1,3.21,3.21,0,0,0,.16-1.08,1.49,1.49,0,0,0,0-.76c-.16-.33-.4-.75-.7-.84a1,1,0,0,1-.81-.9Z"/><path d="M167.74,105.15c.24-.37.54-.62.55-.88.06-1.32-.57-3,1.8-3a3.36,3.36,0,0,0,.7-2.15c-1.3-1-.44-2-.25-3a20.33,20.33,0,0,0,.14-2.93l-.88,0,0,2.51C167,96.63,166.33,99.35,167.74,105.15Z"/><path d="M96.2,70.69l3.52,2.84C96.79,74.16,95.29,72.75,96.2,70.69Z"/><text class="cls-2" transform="translate(0 161.01)"><tspan class="cls-3">e</tspan><tspan class="cls-4" x="27.97" y="0">v</tspan><tspan x="55.07" y="0">e</tspan><tspan class="cls-5" x="83.28" y="0">n</tspan><tspan x="112.83" y="0">tibuzz</tspan></text></g></g></svg>